{
	"asset":{
		"generator":"Khronos glTF Blender I/O v4.3.47",
		"version":"2.0"
	},
	"extensionsUsed":[
		"KHR_materials_emissive_strength"
	],
	"scene":0,
	"scenes":[
		{
			"name":"Scene",
			"nodes":[
				20
			]
		}
	],
	"nodes":[
		{
			"name":"Bone.012",
			"rotation":[
				-0.09742477536201477,
				0.003763036336749792,
				0.03841188922524452,
				0.9944942593574524
			],
			"scale":[
				0.9999999403953552,
				0.9999999403953552,
				1
			],
			"translation":[
				6.262208529506097e-10,
				0.3592011034488678,
				2.436592083654432e-08
			]
		},
		{
			"children":[
				0
			],
			"name":"Bone.009",
			"rotation":[
				0.16633935272693634,
				0.012219197116792202,
				0.0722358301281929,
				0.983343243598938
			],
			"translation":[
				1.6763806343078613e-08,
				0.49574458599090576,
				-9.992007221626409e-16
			]
		},
		{
			"name":"Bone.011",
			"rotation":[
				0.10733630508184433,
				-0.004148213658481836,
				0.038397591561079025,
				0.9934723973274231
			],
			"translation":[
				5.854641216274103e-10,
				0.3655107319355011,
				1.1850776360233795e-08
			]
		},
		{
			"children":[
				2
			],
			"name":"Bone.010",
			"rotation":[
				-0.16948869824409485,
				-0.012450446374714375,
				0.07219633460044861,
				0.9828053116798401
			],
			"scale":[
				0.9999999403953552,
				1,
				1.0000001192092896
			],
			"translation":[
				1.6763806343078613e-08,
				0.49574458599090576,
				-9.992007221626409e-16
			]
		},
		{
			"children":[
				1,
				3
			],
			"name":"Bone.002",
			"rotation":[
				-0.051804233342409134,
				0.705206573009491,
				-0.05180421471595764,
				0.7052066326141357
			],
			"scale":[
				0.9999999403953552,
				0.9999998807907104,
				0.9999999403953552
			],
			"translation":[
				0,
				-0.9599747061729431,
				0.0951632708311081
			]
		},
		{
			"name":"Bone.005",
			"rotation":[
				0.11790948361158371,
				0.02105976827442646,
				-0.2175603210926056,
				0.9686698913574219
			],
			"scale":[
				1,
				0.9999999403953552,
				0.9999999403953552
			],
			"translation":[
				1.4901161193847656e-08,
				0.2907012701034546,
				-2.9802322387695312e-08
			]
		},
		{
			"children":[
				5
			],
			"name":"Bone.004",
			"rotation":[
				-0.3145505487918854,
				0.012358720414340496,
				-0.08626174926757812,
				0.9452323317527771
			],
			"scale":[
				0.9999999403953552,
				1,
				0.9999999403953552
			],
			"translation":[
				4.6566128730773926e-09,
				0.17056556046009064,
				4.6566128730773926e-08
			]
		},
		{
			"children":[
				6
			],
			"name":"Bone.003",
			"rotation":[
				0.5476000308990479,
				0.6203519701957703,
				-0.37159764766693115,
				0.4209665060043335
			],
			"scale":[
				1,
				1,
				0.9999999403953552
			],
			"translation":[
				0,
				-0.9599747061729431,
				0.0951632708311081
			]
		},
		{
			"name":"Bone.008",
			"rotation":[
				-0.12123867869377136,
				0.001193914096802473,
				-0.22553016245365143,
				0.9666622281074524
			],
			"scale":[
				1,
				1,
				0.9999998807907104
			],
			"translation":[
				-7.450580596923828e-09,
				0.30178341269493103,
				-6.332993507385254e-08
			]
		},
		{
			"children":[
				8
			],
			"name":"Bone.007",
			"rotation":[
				0.3166460692882538,
				-0.014226976782083511,
				-0.09938625991344452,
				0.9432153701782227
			],
			"scale":[
				0.9999999403953552,
				1,
				1.0000001192092896
			],
			"translation":[
				3.725290298461914e-08,
				0.17075678706169128,
				7.264316082000732e-08
			]
		},
		{
			"children":[
				9
			],
			"name":"Bone.006",
			"rotation":[
				-0.3592992424964905,
				0.4046465754508972,
				0.558348536491394,
				0.6288180351257324
			],
			"translation":[
				0,
				-0.9599747061729431,
				0.0951632708311081
			]
		},
		{
			"name":"Bone.016",
			"rotation":[
				0.5619478225708008,
				0,
				0,
				0.8271726965904236
			],
			"scale":[
				1,
				1,
				0.9999999403953552
			],
			"translation":[
				0,
				0.1302575021982193,
				-5.960464477539063e-08
			]
		},
		{
			"children":[
				11
			],
			"name":"Bone.013",
			"rotation":[
				-0.9822565317153931,
				0,
				0,
				0.1875423640012741
			],
			"scale":[
				1,
				1.0000001192092896,
				1
			],
			"translation":[
				0,
				-0.9599747061729431,
				0.0951632708311081
			]
		},
		{
			"name":"Bone.017",
			"rotation":[
				0.5619478225708008,
				0,
				0,
				0.8271726965904236
			],
			"scale":[
				1,
				1,
				0.9999999403953552
			],
			"translation":[
				0,
				0.1302575021982193,
				-5.960464477539063e-08
			]
		},
		{
			"children":[
				13
			],
			"name":"Bone.014",
			"rotation":[
				-0.9822565317153931,
				0,
				0,
				0.1875423640012741
			],
			"scale":[
				1,
				1.0000001192092896,
				1
			],
			"translation":[
				0,
				-0.9599747061729431,
				0.0951632708311081
			]
		},
		{
			"name":"Bone.018",
			"rotation":[
				0.5619478225708008,
				0,
				0,
				0.8271726965904236
			],
			"scale":[
				1,
				1,
				0.9999999403953552
			],
			"translation":[
				0,
				0.1302575021982193,
				-5.960464477539063e-08
			]
		},
		{
			"name":"Bone.019",
			"rotation":[
				-0.15506581962108612,
				0,
				0,
				0.9879041910171509
			],
			"translation":[
				0,
				0.1302575021982193,
				-5.960464477539063e-08
			]
		},
		{
			"children":[
				15,
				16
			],
			"name":"Bone.015",
			"rotation":[
				-0.9822565317153931,
				0,
				0,
				0.1875423640012741
			],
			"scale":[
				1,
				1.0000001192092896,
				1
			],
			"translation":[
				0,
				-0.9599747061729431,
				0.0951632708311081
			]
		},
		{
			"name":"neutral_bone",
			"rotation":[
				-0.7071067690849304,
				0,
				0,
				0.7071067690849304
			]
		},
		{
			"mesh":0,
			"name":"model_obj",
			"skin":0
		},
		{
			"children":[
				19,
				4,
				7,
				10,
				12,
				14,
				17,
				18
			],
			"name":"Armature",
			"rotation":[
				-1,
				0,
				0,
				1.6292068494294654e-07
			],
			"translation":[
				0,
				0.3741726875305176,
				0
			]
		}
	],
	"materials":[
		{
			"doubleSided":true,
			"emissiveFactor":[
				1,
				1,
				1
			],
			"emissiveTexture":{
				"index":0
			},
			"extensions":{
				"KHR_materials_emissive_strength":{
					"emissiveStrength":5
				}
			},
			"name":"object_1",
			"pbrMetallicRoughness":{
				"baseColorTexture":{
					"index":1
				},
				"metallicFactor":0
			}
		}
	],
	"meshes":[
		{
			"name":"Mesh",
			"primitives":[
				{
					"attributes":{
						"POSITION":0,
						"NORMAL":1,
						"TEXCOORD_0":2,
						"JOINTS_0":3,
						"WEIGHTS_0":4
					},
					"indices":5,
					"material":0
				}
			]
		}
	],
	"textures":[
		{
			"sampler":0,
			"source":0
		},
		{
			"sampler":0,
			"source":0
		}
	],
	"images":[
		{
			"mimeType":"image/png",
			"name":"Albedo",
			"uri":"Albedo.png"
		}
	],
	"skins":[
		{
			"inverseBindMatrices":6,
			"joints":[
				4,
				1,
				0,
				3,
				2,
				7,
				6,
				5,
				10,
				9,
				8,
				12,
				11,
				14,
				13,
				17,
				15,
				16,
				18
			],
			"name":"Armature"
		}
	],
	"accessors":[
		{
			"bufferView":0,
			"componentType":5126,
			"count":8459,
			"max":[
				0.6893181204795837,
				1.6588636636734009,
				0.13907989859580994
			],
			"min":[
				-0.6893199682235718,
				-0.0040761251002550125,
				-0.19126708805561066
			],
			"type":"VEC3"
		},
		{
			"bufferView":1,
			"componentType":5126,
			"count":8459,
			"type":"VEC3"
		},
		{
			"bufferView":2,
			"componentType":5126,
			"count":8459,
			"type":"VEC2"
		},
		{
			"bufferView":3,
			"componentType":5121,
			"count":8459,
			"type":"VEC4"
		},
		{
			"bufferView":4,
			"componentType":5126,
			"count":8459,
			"type":"VEC4"
		},
		{
			"bufferView":5,
			"componentType":5123,
			"count":44997,
			"type":"SCALAR"
		},
		{
			"bufferView":6,
			"componentType":5126,
			"count":19,
			"type":"MAT4"
		}
	],
	"bufferViews":[
		{
			"buffer":0,
			"byteLength":101508,
			"byteOffset":0,
			"target":34962
		},
		{
			"buffer":0,
			"byteLength":101508,
			"byteOffset":101508,
			"target":34962
		},
		{
			"buffer":0,
			"byteLength":67672,
			"byteOffset":203016,
			"target":34962
		},
		{
			"buffer":0,
			"byteLength":33836,
			"byteOffset":270688,
			"target":34962
		},
		{
			"buffer":0,
			"byteLength":135344,
			"byteOffset":304524,
			"target":34962
		},
		{
			"buffer":0,
			"byteLength":89994,
			"byteOffset":439868,
			"target":34963
		},
		{
			"buffer":0,
			"byteLength":1216,
			"byteOffset":529864
		}
	],
	"samplers":[
		{
			"magFilter":9729,
			"minFilter":9987
		}
	],
	"buffers":[
		{
			"byteLength":531080,
			"uri":"the_watcher.bin"
		}
	]
}
