{
	"asset":{
		"generator":"Khronos glTF Blender I/O v4.3.47",
		"version":"2.0"
	},
	"extensionsUsed":[
		"KHR_materials_emissive_strength"
	],
	"scene":0,
	"scenes":[
		{
			"name":"Scene",
			"nodes":[
				28
			]
		}
	],
	"nodes":[
		{
			"name":"Bone.004",
			"rotation":[
				7.90727372468325e-10,
				7.805724816511983e-12,
				0.010464436374604702,
				0.9999452829360962
			],
			"scale":[
				1,
				0.9999998807907104,
				1
			],
			"translation":[
				8.12578946352005e-08,
				0.10723243653774261,
				-6.25749401432377e-15
			]
		},
		{
			"children":[
				0
			],
			"name":"Bone.003",
			"rotation":[
				4.055826963167419e-08,
				-3.186444663683119e-09,
				0.5656090974807739,
				0.8246734738349915
			],
			"translation":[
				6.332993507385254e-08,
				0.12460926175117493,
				1.388128181872188e-18
			]
		},
		{
			"name":"Bone.007",
			"rotation":[
				3.172740070667146e-09,
				8.093911652018448e-11,
				0.04206223040819168,
				0.999114990234375
			],
			"scale":[
				0.9999999403953552,
				1,
				1
			],
			"translation":[
				-8.149072527885437e-08,
				0.08736215531826019,
				1.1400023737100128e-15
			]
		},
		{
			"children":[
				2
			],
			"name":"Bone.006",
			"rotation":[
				4.530051711526539e-08,
				-1.5436614209107802e-09,
				0.615903913974762,
				0.787821352481842
			],
			"scale":[
				0.9999999403953552,
				0.9999999403953552,
				1
			],
			"translation":[
				-4.0978193283081055e-08,
				0.044032249599695206,
				-1.4482050524473834e-15
			]
		},
		{
			"children":[
				3
			],
			"name":"Bone.005",
			"rotation":[
				-6.563055876540602e-09,
				-1.8659409573018593e-09,
				-0.09413769096136093,
				0.9955592155456543
			],
			"translation":[
				6.332993507385254e-08,
				0.12460926175117493,
				1.388128181872188e-18
			]
		},
		{
			"children":[
				1,
				4
			],
			"name":"Bone.002",
			"rotation":[
				2.3857916531255796e-08,
				3.3916420782986734e-09,
				0.33395007252693176,
				0.9425907731056213
			],
			"translation":[
				2.2351741790771484e-08,
				0.35246506333351135,
				-2.220446049250313e-15
			]
		},
		{
			"name":"Bone.021",
			"rotation":[
				0.1189296543598175,
				-0.0507880300283432,
				-0.11458525061607361,
				0.9849601984024048
			],
			"scale":[
				0.9999998807907104,
				1,
				0.9999999403953552
			],
			"translation":[
				-1.30385160446167e-08,
				0.09953498095273972,
				8.195638656616211e-08
			]
		},
		{
			"children":[
				6
			],
			"name":"Bone.020",
			"rotation":[
				0.068053238093853,
				-0.035170432180166245,
				-0.0450146310031414,
				0.996044933795929
			],
			"scale":[
				0.9999998807907104,
				1,
				0.9999998807907104
			],
			"translation":[
				-7.310882210731506e-08,
				0.28976547718048096,
				1.5366822481155396e-08
			]
		},
		{
			"children":[
				7
			],
			"name":"Bone.019",
			"rotation":[
				0.05323677137494087,
				0.005473349243402481,
				0.2454940378665924,
				0.9679197072982788
			],
			"scale":[
				0.9999998807907104,
				1,
				0.9999998807907104
			],
			"translation":[
				-2.2351741790771484e-08,
				0.3072168231010437,
				-7.450580596923828e-09
			]
		},
		{
			"children":[
				8
			],
			"name":"Bone.018",
			"rotation":[
				0.2792150676250458,
				0.009897831827402115,
				-0.12778039276599884,
				0.9516370892524719
			],
			"scale":[
				1,
				0.9999999403953552,
				1
			],
			"translation":[
				-5.587935447692871e-09,
				0.17921943962574005,
				-6.705522537231445e-08
			]
		},
		{
			"children":[
				9
			],
			"name":"Bone.017",
			"rotation":[
				0.7613747715950012,
				-2.4464235082177765e-09,
				-0.035689566284418106,
				0.6473289132118225
			],
			"scale":[
				1,
				1,
				1.0000001192092896
			],
			"translation":[
				2.2351741790771484e-08,
				0.35246506333351135,
				-2.220446049250313e-15
			]
		},
		{
			"name":"Bone.026",
			"rotation":[
				-0.11855162680149078,
				0.046437446027994156,
				-0.07977456599473953,
				0.9886481761932373
			],
			"scale":[
				1,
				1,
				0.9999999403953552
			],
			"translation":[
				2.60770320892334e-08,
				0.10810282081365585,
				-9.313225746154785e-09
			]
		},
		{
			"children":[
				11
			],
			"name":"Bone.025",
			"rotation":[
				-0.07247394323348999,
				0.03587084636092186,
				-0.055791761726140976,
				0.9951623678207397
			],
			"scale":[
				1,
				0.9999999403953552,
				0.9999999403953552
			],
			"translation":[
				-3.259629011154175e-08,
				0.2960439622402191,
				8.988718036562204e-08
			]
		},
		{
			"children":[
				12
			],
			"name":"Bone.024",
			"rotation":[
				-0.02987722121179104,
				-0.009027627296745777,
				0.2566155195236206,
				0.9660094976425171
			],
			"scale":[
				1.0000001192092896,
				1.0000001192092896,
				1
			],
			"translation":[
				-6.705522537231445e-08,
				0.28438711166381836,
				1.0803341865539551e-07
			]
		},
		{
			"children":[
				13
			],
			"name":"Bone.023",
			"rotation":[
				-0.2927470803260803,
				-0.014334830455482006,
				-0.1427302211523056,
				0.9453685879707336
			],
			"scale":[
				0.9999999403953552,
				1,
				0.9999999403953552
			],
			"translation":[
				-4.0046870708465576e-08,
				0.17958790063858032,
				8.195638656616211e-08
			]
		},
		{
			"children":[
				14
			],
			"name":"Bone.022",
			"rotation":[
				-0.757504403591156,
				-2.9507079446489115e-08,
				-0.032773301005363464,
				0.6520069241523743
			],
			"scale":[
				1,
				1,
				1.0000001192092896
			],
			"translation":[
				2.2351741790771484e-08,
				0.35246506333351135,
				-2.220446049250313e-15
			]
		},
		{
			"children":[
				5,
				10,
				15
			],
			"name":"Bone.001",
			"rotation":[
				-1.567597394114273e-07,
				7.068877039273502e-08,
				-0.806053102016449,
				0.5918432474136353
			],
			"translation":[
				-1.2279599559406051e-10,
				0.13301929831504822,
				3.854767533615516e-17
			]
		},
		{
			"name":"Bone.015",
			"rotation":[
				-0.011306971311569214,
				-9.780134035963783e-08,
				-0.08517830073833466,
				0.9963015913963318
			],
			"scale":[
				1,
				1,
				0.9999999403953552
			],
			"translation":[
				-1.862645149230957e-09,
				0.15404753386974335,
				-6.984919309616089e-10
			]
		},
		{
			"children":[
				17
			],
			"name":"Bone.013",
			"rotation":[
				-0.0036518501583486795,
				-0.007589452899992466,
				-0.6962558627128601,
				0.7177442312240601
			],
			"scale":[
				1.0000001192092896,
				1.0000001192092896,
				1
			],
			"translation":[
				4.511093720793724e-09,
				0.4117603600025177,
				-8.149072527885437e-10
			]
		},
		{
			"children":[
				18
			],
			"name":"Bone.010",
			"rotation":[
				0.11697477847337723,
				-0.008157672360539436,
				0.06798528879880905,
				0.9907716512680054
			],
			"scale":[
				0.9999999403953552,
				0.9999999403953552,
				0.9999999403953552
			],
			"translation":[
				-1.1641532182693481e-10,
				0.39695852994918823,
				1.2689270079135895e-08
			]
		},
		{
			"children":[
				19
			],
			"name":"Bone.009",
			"rotation":[
				-0.17438076436519623,
				-0.0021473963279277086,
				-0.027501478791236877,
				0.9842918515205383
			],
			"scale":[
				0.9999999403953552,
				0.9999999403953552,
				1
			],
			"translation":[
				9.313225746154785e-10,
				0.17494851350784302,
				3.885780586188048e-16
			]
		},
		{
			"name":"Bone.016",
			"rotation":[
				0.012105540372431278,
				1.4915580948127172e-07,
				-0.085068479180336,
				0.9963015913963318
			],
			"scale":[
				0.9999999403953552,
				0.9999999403953552,
				1
			],
			"translation":[
				-6.05359673500061e-09,
				0.15404751896858215,
				-1.4202669262886047e-08
			]
		},
		{
			"children":[
				21
			],
			"name":"Bone.014",
			"rotation":[
				-0.000525399693287909,
				0.008511560037732124,
				-0.6968094706535339,
				0.7172056436538696
			],
			"scale":[
				0.9999999403953552,
				1,
				1
			],
			"translation":[
				5.9371814131736755e-09,
				0.40824592113494873,
				-2.6659108698368073e-08
			]
		},
		{
			"children":[
				22
			],
			"name":"Bone.012",
			"rotation":[
				-0.10122623294591904,
				0.007134349551051855,
				0.0694284439086914,
				0.992412269115448
			],
			"scale":[
				0.9999998807907104,
				0.9999998807907104,
				1
			],
			"translation":[
				-8.149072527885437e-10,
				0.4015839695930481,
				4.722096491605043e-09
			]
		},
		{
			"children":[
				23
			],
			"name":"Bone.011",
			"rotation":[
				0.16601577401161194,
				-1.0203942224507045e-07,
				-0.028008807450532913,
				0.9857252836227417
			],
			"scale":[
				1,
				1,
				0.9999999403953552
			],
			"translation":[
				9.313225746154785e-10,
				0.17494851350784302,
				3.885780586188048e-16
			]
		},
		{
			"children":[
				20,
				24
			],
			"name":"Bone.008",
			"rotation":[
				1.4009791016178497e-07,
				8.271494067457752e-08,
				0.7184397578239441,
				0.6955892443656921
			],
			"translation":[
				-1.2279599559406051e-10,
				0.13301929831504822,
				3.854767533615516e-17
			]
		},
		{
			"children":[
				16,
				25
			],
			"name":"Bone",
			"rotation":[
				-0.4934193789958954,
				0.5064951181411743,
				-0.49341922998428345,
				0.5064952969551086
			],
			"translation":[
				0,
				-0.6293056607246399,
				0.13297401368618011
			]
		},
		{
			"mesh":0,
			"name":"model_obj",
			"skin":0
		},
		{
			"children":[
				27,
				26
			],
			"name":"Armature",
			"rotation":[
				-1,
				0,
				0,
				1.6292068494294654e-07
			],
			"translation":[
				0,
				0.3741726875305176,
				0
			]
		}
	],
	"materials":[
		{
			"doubleSided":true,
			"emissiveFactor":[
				1,
				1,
				1
			],
			"emissiveTexture":{
				"index":0
			},
			"extensions":{
				"KHR_materials_emissive_strength":{
					"emissiveStrength":5
				}
			},
			"name":"object_1",
			"pbrMetallicRoughness":{
				"baseColorTexture":{
					"index":1
				},
				"metallicFactor":0
			}
		}
	],
	"meshes":[
		{
			"name":"Mesh",
			"primitives":[
				{
					"attributes":{
						"POSITION":0,
						"NORMAL":1,
						"TEXCOORD_0":2,
						"JOINTS_0":3,
						"WEIGHTS_0":4
					},
					"indices":5,
					"material":0
				}
			]
		}
	],
	"textures":[
		{
			"sampler":0,
			"source":0
		},
		{
			"sampler":0,
			"source":0
		}
	],
	"images":[
		{
			"mimeType":"image/png",
			"name":"Albedo",
			"uri":"Albedo.png"
		}
	],
	"skins":[
		{
			"inverseBindMatrices":6,
			"joints":[
				26,
				16,
				5,
				1,
				0,
				4,
				3,
				2,
				10,
				9,
				8,
				7,
				6,
				15,
				14,
				13,
				12,
				11,
				25,
				20,
				19,
				18,
				17,
				24,
				23,
				22,
				21
			],
			"name":"Armature"
		}
	],
	"accessors":[
		{
			"bufferView":0,
			"componentType":5126,
			"count":8459,
			"max":[
				0.6893181204795837,
				1.6588636636734009,
				0.13907989859580994
			],
			"min":[
				-0.6893199682235718,
				-0.0040761251002550125,
				-0.19126708805561066
			],
			"type":"VEC3"
		},
		{
			"bufferView":1,
			"componentType":5126,
			"count":8459,
			"type":"VEC3"
		},
		{
			"bufferView":2,
			"componentType":5126,
			"count":8459,
			"type":"VEC2"
		},
		{
			"bufferView":3,
			"componentType":5121,
			"count":8459,
			"type":"VEC4"
		},
		{
			"bufferView":4,
			"componentType":5126,
			"count":8459,
			"type":"VEC4"
		},
		{
			"bufferView":5,
			"componentType":5123,
			"count":44997,
			"type":"SCALAR"
		},
		{
			"bufferView":6,
			"componentType":5126,
			"count":27,
			"type":"MAT4"
		}
	],
	"bufferViews":[
		{
			"buffer":0,
			"byteLength":101508,
			"byteOffset":0,
			"target":34962
		},
		{
			"buffer":0,
			"byteLength":101508,
			"byteOffset":101508,
			"target":34962
		},
		{
			"buffer":0,
			"byteLength":67672,
			"byteOffset":203016,
			"target":34962
		},
		{
			"buffer":0,
			"byteLength":33836,
			"byteOffset":270688,
			"target":34962
		},
		{
			"buffer":0,
			"byteLength":135344,
			"byteOffset":304524,
			"target":34962
		},
		{
			"buffer":0,
			"byteLength":89994,
			"byteOffset":439868,
			"target":34963
		},
		{
			"buffer":0,
			"byteLength":1728,
			"byteOffset":529864
		}
	],
	"samplers":[
		{
			"magFilter":9729,
			"minFilter":9987
		}
	],
	"buffers":[
		{
			"byteLength":531592,
			"uri":"the_watcher.bin"
		}
	]
}
