{
	"asset":{
		"generator":"Khronos glTF Blender I/O v4.3.47",
		"version":"2.0"
	},
	"scene":0,
	"scenes":[
		{
			"name":"Scene",
			"nodes":[
				0,
				1,
				2,
				3
			]
		}
	],
	"nodes":[
		{
			"mesh":0,
			"name":"handle_low.1",
			"rotation":[
				0.7071068286895752,
				0,
				0,
				0.7071068286895752
			],
			"translation":[
				-1.5734078884124756,
				3.426759719848633,
				0
			]
		},
		{
			"mesh":1,
			"name":"handle_low.2",
			"rotation":[
				0.7071068286895752,
				0,
				0,
				0.7071068286895752
			],
			"translation":[
				-1.5892581939697266,
				2.355668306350708,
				0
			]
		},
		{
			"mesh":2,
			"name":"handle_low.3",
			"rotation":[
				0.7071068286895752,
				0,
				0,
				0.7071068286895752
			],
			"translation":[
				-1.5698025226593018,
				1.1955280303955078,
				0
			]
		},
		{
			"mesh":3,
			"name":"lags_low",
			"rotation":[
				0.7071068286895752,
				0,
				0,
				0.7071068286895752
			],
			"translation":[
				-1.2375366687774658,
				0.010424524545669556,
				-1.7689754962921143
			]
		}
	],
	"materials":[
		{
			"doubleSided":true,
			"name":"Material.001.1001",
			"normalTexture":{
				"index":0
			},
			"pbrMetallicRoughness":{
				"baseColorTexture":{
					"index":1
				},
				"metallicRoughnessTexture":{
					"index":2
				}
			}
		},
		{
			"doubleSided":true,
			"name":"Material.001.1001",
			"normalTexture":{
				"index":0
			},
			"pbrMetallicRoughness":{
				"baseColorTexture":{
					"index":1
				},
				"metallicRoughnessTexture":{
					"index":2
				}
			}
		},
		{
			"doubleSided":true,
			"name":"Material.001.1001",
			"normalTexture":{
				"index":0
			},
			"pbrMetallicRoughness":{
				"baseColorTexture":{
					"index":1
				},
				"metallicRoughnessTexture":{
					"index":2
				}
			}
		},
		{
			"doubleSided":true,
			"name":"Material.001.1001",
			"normalTexture":{
				"index":0
			},
			"pbrMetallicRoughness":{
				"baseColorTexture":{
					"index":1
				},
				"metallicRoughnessTexture":{
					"index":2
				}
			}
		}
	],
	"meshes":[
		{
			"name":"Cylinder.001",
			"primitives":[
				{
					"attributes":{
						"POSITION":0,
						"NORMAL":1,
						"TEXCOORD_0":2
					},
					"indices":3,
					"material":0
				}
			]
		},
		{
			"name":"Cylinder.003",
			"primitives":[
				{
					"attributes":{
						"POSITION":4,
						"NORMAL":5,
						"TEXCOORD_0":6
					},
					"indices":7,
					"material":1
				}
			]
		},
		{
			"name":"Cylinder.006",
			"primitives":[
				{
					"attributes":{
						"POSITION":8,
						"NORMAL":9,
						"TEXCOORD_0":10
					},
					"indices":7,
					"material":2
				}
			]
		},
		{
			"name":"Cylinder.009",
			"primitives":[
				{
					"attributes":{
						"POSITION":11,
						"NORMAL":12,
						"TEXCOORD_0":13
					},
					"indices":14,
					"material":3
				}
			]
		}
	],
	"textures":[
		{
			"sampler":0,
			"source":0
		},
		{
			"sampler":0,
			"source":1
		},
		{
			"sampler":0,
			"source":2
		}
	],
	"images":[
		{
			"mimeType":"image/png",
			"name":"Tymba_low_Material_Normal.1001",
			"uri":"Tymba_low_Material_Normal_1001.png"
		},
		{
			"mimeType":"image/png",
			"name":"Tymba_low_Material_BaseColor.1001",
			"uri":"Tymba_low_Material_BaseColor_1001.png"
		},
		{
			"mimeType":"image/png",
			"name":"Tymba_low_Material_Metallic.1001-Tymba_low_Material_Roughness.1001",
			"uri":"Tymba_low_Material_Metallic_1001-Tymba_low_Material_Roughness_1001.png"
		}
	],
	"accessors":[
		{
			"bufferView":0,
			"componentType":5126,
			"count":3531,
			"max":[
				2.6623597145080566,
				1.601262092590332,
				-0.2840890884399414
			],
			"min":[
				-0.10510566830635071,
				-1.7043484449386597,
				-1.3373825550079346
			],
			"type":"VEC3"
		},
		{
			"bufferView":1,
			"componentType":5126,
			"count":3531,
			"type":"VEC3"
		},
		{
			"bufferView":2,
			"componentType":5126,
			"count":3531,
			"type":"VEC2"
		},
		{
			"bufferView":3,
			"componentType":5123,
			"count":14304,
			"type":"SCALAR"
		},
		{
			"bufferView":4,
			"componentType":5126,
			"count":3531,
			"max":[
				2.6518101692199707,
				1.623226284980774,
				-0.19016997516155243
			],
			"min":[
				-0.10510566830635071,
				-1.6232261657714844,
				-1.2366379499435425
			],
			"type":"VEC3"
		},
		{
			"bufferView":5,
			"componentType":5126,
			"count":3531,
			"type":"VEC3"
		},
		{
			"bufferView":6,
			"componentType":5126,
			"count":3531,
			"type":"VEC2"
		},
		{
			"bufferView":7,
			"componentType":5123,
			"count":14304,
			"type":"SCALAR"
		},
		{
			"bufferView":8,
			"componentType":5126,
			"count":3531,
			"max":[
				2.6489946842193604,
				1.6338987350463867,
				-0.21771998703479767
			],
			"min":[
				-0.10510566830635071,
				-1.6338986158370972,
				-1.2222572565078735
			],
			"type":"VEC3"
		},
		{
			"bufferView":9,
			"componentType":5126,
			"count":3531,
			"type":"VEC3"
		},
		{
			"bufferView":10,
			"componentType":5126,
			"count":3531,
			"type":"VEC2"
		},
		{
			"bufferView":11,
			"componentType":5126,
			"count":558,
			"max":[
				2.8489742279052734,
				3.8923354148864746,
				-0.08735281229019165
			],
			"min":[
				-0.3739008903503418,
				-0.35438358783721924,
				-5.322750568389893
			],
			"type":"VEC3"
		},
		{
			"bufferView":12,
			"componentType":5126,
			"count":558,
			"type":"VEC3"
		},
		{
			"bufferView":13,
			"componentType":5126,
			"count":558,
			"type":"VEC2"
		},
		{
			"bufferView":14,
			"componentType":5123,
			"count":1344,
			"type":"SCALAR"
		}
	],
	"bufferViews":[
		{
			"buffer":0,
			"byteLength":42372,
			"byteOffset":0,
			"target":34962
		},
		{
			"buffer":0,
			"byteLength":42372,
			"byteOffset":42372,
			"target":34962
		},
		{
			"buffer":0,
			"byteLength":28248,
			"byteOffset":84744,
			"target":34962
		},
		{
			"buffer":0,
			"byteLength":28608,
			"byteOffset":112992,
			"target":34963
		},
		{
			"buffer":0,
			"byteLength":42372,
			"byteOffset":141600,
			"target":34962
		},
		{
			"buffer":0,
			"byteLength":42372,
			"byteOffset":183972,
			"target":34962
		},
		{
			"buffer":0,
			"byteLength":28248,
			"byteOffset":226344,
			"target":34962
		},
		{
			"buffer":0,
			"byteLength":28608,
			"byteOffset":254592,
			"target":34963
		},
		{
			"buffer":0,
			"byteLength":42372,
			"byteOffset":283200,
			"target":34962
		},
		{
			"buffer":0,
			"byteLength":42372,
			"byteOffset":325572,
			"target":34962
		},
		{
			"buffer":0,
			"byteLength":28248,
			"byteOffset":367944,
			"target":34962
		},
		{
			"buffer":0,
			"byteLength":6696,
			"byteOffset":396192,
			"target":34962
		},
		{
			"buffer":0,
			"byteLength":6696,
			"byteOffset":402888,
			"target":34962
		},
		{
			"buffer":0,
			"byteLength":4464,
			"byteOffset":409584,
			"target":34962
		},
		{
			"buffer":0,
			"byteLength":2688,
			"byteOffset":414048,
			"target":34963
		}
	],
	"samplers":[
		{
			"magFilter":9729,
			"minFilter":9987
		}
	],
	"buffers":[
		{
			"byteLength":416736,
			"uri":"dresser.bin"
		}
	]
}
