{
	"asset":{
		"generator":"Khronos glTF Blender I/O v4.3.47",
		"version":"2.0"
	},
	"scene":0,
	"scenes":[
		{
			"name":"Scene",
			"nodes":[
				25
			]
		}
	],
	"nodes":[
		{
			"name":"Bone.006",
			"rotation":[
				-0.00892635714262724,
				-3.67542529744469e-09,
				0.0024178423918783665,
				0.999957263469696
			],
			"scale":[
				0.9999998807907104,
				0.9999999403953552,
				0.9999999403953552
			],
			"translation":[
				5.029141902923584e-08,
				4.471077919006348,
				-4.470348358154297e-08
			]
		},
		{
			"children":[
				0
			],
			"name":"Bone.005",
			"rotation":[
				-0.007384580094367266,
				-0.0001784733758540824,
				-0.02210470847785473,
				0.9997283816337585
			],
			"scale":[
				0.9999999403953552,
				1,
				0.9999998807907104
			],
			"translation":[
				3.2782554626464844e-07,
				3.6708502769470215,
				-2.9802322387695312e-08
			]
		},
		{
			"children":[
				1
			],
			"name":"Bone.004",
			"rotation":[
				-0.021259363740682602,
				-0.010102289728820324,
				-0.6303620338439941,
				0.7759444117546082
			],
			"scale":[
				0.9999998807907104,
				0.9999998807907104,
				0.9999998211860657
			],
			"translation":[
				1.133805199060589e-06,
				2.39089298248291,
				1.1920928955078125e-07
			]
		},
		{
			"children":[
				2
			],
			"name":"Bone.003",
			"rotation":[
				0.09678801894187927,
				-0.11514119058847427,
				-0.7567694783210754,
				0.6361404061317444
			],
			"scale":[
				1,
				1.0000001192092896,
				1
			],
			"translation":[
				0,
				1.3245840072631836,
				-7.666741907996766e-08
			]
		},
		{
			"name":"Bone.010",
			"rotation":[
				0.012956980615854263,
				-0.0002143305173376575,
				-0.0134422667324543,
				0.9998257160186768
			],
			"scale":[
				0.9999999403953552,
				0.9999998807907104,
				0.9999999403953552
			],
			"translation":[
				-5.21540641784668e-08,
				4.405544281005859,
				2.7939677238464355e-09
			]
		},
		{
			"children":[
				4
			],
			"name":"Bone.009",
			"rotation":[
				0.009972033090889454,
				-0.0001572977053001523,
				0.04893545061349869,
				0.9987521767616272
			],
			"scale":[
				1,
				0.9999999403953552,
				0.9999999403953552
			],
			"translation":[
				-8.940696716308594e-08,
				3.70524263381958,
				5.960464477539063e-08
			]
		},
		{
			"children":[
				5
			],
			"name":"Bone.008",
			"rotation":[
				0.010806474834680557,
				-0.0058982716873288155,
				0.6059862375259399,
				0.7953798770904541
			],
			"scale":[
				0.9999999403953552,
				1,
				1
			],
			"translation":[
				9.806826710700989e-07,
				2.269416093826294,
				5.960464477539063e-08
			]
		},
		{
			"children":[
				6
			],
			"name":"Bone.007",
			"rotation":[
				-0.10071145743131638,
				-0.10246812552213669,
				0.766079843044281,
				0.6264816522598267
			],
			"scale":[
				0.9999999403953552,
				0.9999999403953552,
				0.9999999403953552
			],
			"translation":[
				0,
				1.3245840072631836,
				-7.666741907996766e-08
			]
		},
		{
			"name":"Bone.015",
			"rotation":[
				0.17949996888637543,
				-5.778191103757505e-14,
				2.1398059857347107e-07,
				0.9837579727172852
			],
			"translation":[
				7.709588176196824e-13,
				1.9906378984451294,
				-2.980232238769531e-07
			]
		},
		{
			"children":[
				8
			],
			"name":"Bone.012",
			"rotation":[
				-0.08722513169050217,
				3.9265027861057344e-12,
				-1.0398007788126051e-07,
				0.9961886405944824
			],
			"translation":[
				-1.388019338138466e-13,
				2.232682228088379,
				2.086162567138672e-07
			]
		},
		{
			"name":"Bone.014",
			"rotation":[
				-0.1691436767578125,
				-2.973837539069213e-13,
				-2.419620273030887e-07,
				0.9855914115905762
			],
			"scale":[
				1,
				1.0000001192092896,
				1.0000001192092896
			],
			"translation":[
				8.843795921281705e-13,
				1.990368127822876,
				-2.682209014892578e-07
			]
		},
		{
			"children":[
				10
			],
			"name":"Bone.013",
			"rotation":[
				0.24141836166381836,
				1.1568737079414859e-07,
				3.165715156683291e-07,
				0.9704211354255676
			],
			"translation":[
				-1.388019338138466e-13,
				2.232682228088379,
				2.086162567138672e-07
			]
		},
		{
			"children":[
				9,
				11
			],
			"name":"Bone.011",
			"rotation":[
				-0.08177430927753448,
				5.940462415310321e-07,
				-4.87409650418158e-08,
				0.9966508746147156
			],
			"translation":[
				0,
				1.3245840072631836,
				-7.666741907996766e-08
			]
		},
		{
			"children":[
				3,
				7,
				12
			],
			"name":"Bone.002",
			"rotation":[
				-1.4901161193847656e-08,
				0,
				0,
				1
			],
			"translation":[
				0,
				1.9413824081420898,
				2.8441775157261873e-08
			]
		},
		{
			"children":[
				13
			],
			"name":"Bone.001",
			"rotation":[
				0.7016834020614624,
				0,
				0,
				0.7124889492988586
			],
			"translation":[
				0,
				1.4028139114379883,
				9.70612745732069e-07
			]
		},
		{
			"name":"Bone.023",
			"rotation":[
				0.012690715491771698,
				0.00040143902879208326,
				0.008111982606351376,
				0.9998865127563477
			],
			"scale":[
				1,
				1,
				0.9999999403953552
			],
			"translation":[
				-4.284083843231201e-08,
				2.9324889183044434,
				2.0489096641540527e-08
			]
		},
		{
			"children":[
				15
			],
			"name":"Bone.019",
			"rotation":[
				-0.06480094790458679,
				-0.0013012849958613515,
				-0.01883254013955593,
				0.9977196455001831
			],
			"scale":[
				1,
				0.9999999403953552,
				1
			],
			"translation":[
				1.0244548320770264e-08,
				2.4491159915924072,
				2.421438694000244e-08
			]
		},
		{
			"children":[
				16
			],
			"name":"Bone.018",
			"rotation":[
				-0.6525171995162964,
				-2.5813557513743035e-08,
				0.013420907780528069,
				0.7576550841331482
			],
			"scale":[
				1,
				0.9999999403953552,
				1
			],
			"translation":[
				2.4621840566396713e-08,
				0.7949299216270447,
				-3.3527612686157227e-08
			]
		},
		{
			"children":[
				17
			],
			"name":"Bone.016",
			"rotation":[
				-0.025342075154185295,
				5.4020553363898216e-08,
				-0.7068462371826172,
				0.7069131731987
			],
			"scale":[
				0.9999998807907104,
				1,
				1
			],
			"translation":[
				0,
				1.4028139114379883,
				9.70612745732069e-07
			]
		},
		{
			"name":"Bone.022",
			"rotation":[
				0.0149328438565135,
				-0.00010976626799674705,
				-0.007233248557895422,
				0.9998623132705688
			],
			"translation":[
				2.60770320892334e-08,
				2.915569543838501,
				7.805647328495979e-08
			]
		},
		{
			"children":[
				19
			],
			"name":"Bone.021",
			"rotation":[
				-0.026162164285779,
				-3.433844540268183e-05,
				0.015817565843462944,
				0.9995325803756714
			],
			"scale":[
				1,
				1.0000001192092896,
				0.9999999403953552
			],
			"translation":[
				-1.862645149230957e-08,
				2.4739222526550293,
				2.1056621335446835e-08
			]
		},
		{
			"children":[
				20
			],
			"name":"Bone.020",
			"rotation":[
				-0.6899548172950745,
				-0.006004860159009695,
				-0.013219328597187996,
				0.723706841468811
			],
			"translation":[
				2.9147486202418804e-08,
				0.7503494620323181,
				-1.4906399883329868e-06
			]
		},
		{
			"children":[
				21
			],
			"name":"Bone.017",
			"rotation":[
				-0.017897063866257668,
				-1.6465701691004142e-08,
				0.7070170640945435,
				0.7069700360298157
			],
			"scale":[
				1,
				1,
				0.9999999403953552
			],
			"translation":[
				0,
				1.4028139114379883,
				9.70612745732069e-07
			]
		},
		{
			"children":[
				14,
				18,
				22
			],
			"name":"Bone",
			"rotation":[
				-0.003078268840909004,
				0,
				0,
				0.9999952912330627
			],
			"scale":[
				1,
				0.9999999403953552,
				0.9999999403953552
			],
			"translation":[
				0,
				-0.402787446975708,
				0.008636675775051117
			]
		},
		{
			"mesh":0,
			"name":"Cylinder",
			"skin":0
		},
		{
			"children":[
				24,
				23
			],
			"name":"Armature",
			"rotation":[
				-0.6994868516921997,
				0,
				0,
				0.714645504951477
			],
			"translation":[
				0,
				8.854571342468262,
				1.0623047351837158
			]
		}
	],
	"materials":[
		{
			"doubleSided":true,
			"name":"Material.001",
			"pbrMetallicRoughness":{
				"baseColorFactor":[
					0,
					0,
					0,
					1
				],
				"roughnessFactor":0.22545453906059265
			}
		}
	],
	"meshes":[
		{
			"name":"Cylinder",
			"primitives":[
				{
					"attributes":{
						"POSITION":0,
						"NORMAL":1,
						"JOINTS_0":2,
						"WEIGHTS_0":3
					},
					"indices":4,
					"material":0
				}
			]
		}
	],
	"skins":[
		{
			"inverseBindMatrices":5,
			"joints":[
				23,
				14,
				13,
				3,
				2,
				1,
				0,
				7,
				6,
				5,
				4,
				12,
				9,
				8,
				11,
				10,
				18,
				17,
				16,
				15,
				22,
				21,
				20,
				19
			],
			"name":"Armature"
		}
	],
	"accessors":[
		{
			"bufferView":0,
			"componentType":5126,
			"count":13290,
			"max":[
				2.7938876152038574,
				16.6943302154541,
				1.3848094940185547
			],
			"min":[
				-2.704334020614624,
				2.9646925926208496,
				-1.324263334274292
			],
			"type":"VEC3"
		},
		{
			"bufferView":1,
			"componentType":5126,
			"count":13290,
			"type":"VEC3"
		},
		{
			"bufferView":2,
			"componentType":5121,
			"count":13290,
			"type":"VEC4"
		},
		{
			"bufferView":3,
			"componentType":5126,
			"count":13290,
			"type":"VEC4"
		},
		{
			"bufferView":4,
			"componentType":5123,
			"count":79728,
			"type":"SCALAR"
		},
		{
			"bufferView":5,
			"componentType":5126,
			"count":24,
			"type":"MAT4"
		}
	],
	"bufferViews":[
		{
			"buffer":0,
			"byteLength":159480,
			"byteOffset":0,
			"target":34962
		},
		{
			"buffer":0,
			"byteLength":159480,
			"byteOffset":159480,
			"target":34962
		},
		{
			"buffer":0,
			"byteLength":53160,
			"byteOffset":318960,
			"target":34962
		},
		{
			"buffer":0,
			"byteLength":212640,
			"byteOffset":372120,
			"target":34962
		},
		{
			"buffer":0,
			"byteLength":159456,
			"byteOffset":584760,
			"target":34963
		},
		{
			"buffer":0,
			"byteLength":1536,
			"byteOffset":744216
		}
	],
	"buffers":[
		{
			"byteLength":745752,
			"uri":"the_shade.bin"
		}
	]
}
