{
  "accessors": [
    {
      "bufferView": 2,
      "componentType": 5126,
      "count": 4701,
      "max": [
        20.887617111206055,
        77.09809112548828,
        18.78250503540039
      ],
      "min": [
        -16.415237426757813,
        0.05000010132789612,
        -17.47981834411621
      ],
      "type": "VEC3"
    },
    {
      "bufferView": 2,
      "byteOffset": 56412,
      "componentType": 5126,
      "count": 4701,
      "max": [
        0.9996605515480042,
        0.9998661875724792,
        0.9995054602622986
      ],
      "min": [
        -0.9999600648880005,
        -0.9944697022438049,
        -0.9998819828033447
      ],
      "type": "VEC3"
    },
    {
      "bufferView": 3,
      "componentType": 5126,
      "count": 4701,
      "max": [
        0.9999979138374329,
        0.9935309886932373,
        0.9999085664749146,
        1.0
      ],
      "min": [
        -1.0,
        -0.9998367428779602,
        -0.9999485015869141,
        1.0
      ],
      "type": "VEC4"
    },
    {
      "bufferView": 1,
      "componentType": 5126,
      "count": 4701,
      "max": [
        0.974968433380127,
        0.9900000095367432
      ],
      "min": [
        0.009999999776482582,
        0.009999999776482582
      ],
      "type": "VEC2"
    },
    {
      "bufferView": 0,
      "componentType": 5125,
      "count": 14973,
      "type": "SCALAR"
    }
  ],
  "asset": {
    "extras": {
      "author": "mikeW (https://sketchfab.com/wta)",
      "license": "CC-BY-4.0 (http://creativecommons.org/licenses/by/4.0/)",
      "source": "https://sketchfab.com/3d-models/potted-plant-3681d714c3774fa0b0c4ed354b0ec642",
      "title": "potted plant"
    },
    "generator": "Sketchfab-15.47.0",
    "version": "2.0"
  },
  "bufferViews": [
    {
      "buffer": 0,
      "byteLength": 59892,
      "name": "floatBufferViews",
      "target": 34963
    },
    {
      "buffer": 0,
      "byteLength": 37608,
      "byteOffset": 59892,
      "byteStride": 8,
      "name": "floatBufferViews",
      "target": 34962
    },
    {
      "buffer": 0,
      "byteLength": 112824,
      "byteOffset": 97500,
      "byteStride": 12,
      "name": "floatBufferViews",
      "target": 34962
    },
    {
      "buffer": 0,
      "byteLength": 75216,
      "byteOffset": 210324,
      "byteStride": 16,
      "name": "floatBufferViews",
      "target": 34962
    }
  ],
  "buffers": [
    {
      "byteLength": 285540,
      "uri": "gltf.bin"
    }
  ],
  "images": [
    {
      "uri": "textures/flowerLP_baseColor.png"
    },
    {
      "uri": "textures/flowerLP_metallicRoughness.png"
    },
    {
      "uri": "textures/flowerLP_normal.png"
    }
  ],
  "materials": [
    {
      "doubleSided": true,
      "name": "flowerLP",
      "normalTexture": {
        "index": 2
      },
      "pbrMetallicRoughness": {
        "baseColorTexture": {
          "index": 0
        },
        "metallicFactor": 0.0,
        "metallicRoughnessTexture": {
          "index": 1
        }
      }
    }
  ],
  "meshes": [
    {
      "name": "flowerLP_flowerLP_0",
      "primitives": [
        {
          "attributes": {
            "NORMAL": 1,
            "POSITION": 0,
            "TANGENT": 2,
            "TEXCOORD_0": 3
          },
          "indices": 4,
          "material": 0,
          "mode": 4
        }
      ]
    }
  ],
  "nodes": [
    {
      "children": [
        1
      ],
      "matrix": [
        1.0,
        0.0,
        0.0,
        0.0,
        0.0,
        2.220446049250313e-16,
        -1.0,
        0.0,
        0.0,
        1.0,
        2.220446049250313e-16,
        0.0,
        0.0,
        0.0,
        0.0,
        1.0
      ],
      "name": "Sketchfab_model"
    },
    {
      "children": [
        2
      ],
      "matrix": [
        0.009999999776482582,
        0.0,
        0.0,
        0.0,
        0.0,
        0.0,
        0.009999999776482582,
        0.0,
        0.0,
        -0.009999999776482582,
        0.0,
        0.0,
        0.0,
        0.0,
        0.0,
        1.0
      ],
      "name": "5cf244f2832d4a7fb3ea25d265552ea2.fbx"
    },
    {
      "children": [
        3
      ],
      "name": "RootNode"
    },
    {
      "children": [
        4
      ],
      "name": "flowerLP"
    },
    {
      "mesh": 0,
      "name": "flowerLP_flowerLP_0"
    }
  ],
  "samplers": [
    {
      "magFilter": 9729,
      "minFilter": 9987,
      "wrapS": 10497,
      "wrapT": 10497
    }
  ],
  "scene": 0,
  "scenes": [
    {
      "name": "Sketchfab_Scene",
      "nodes": [
        0
      ]
    }
  ],
  "textures": [
    {
      "sampler": 0,
      "source": 0
    },
    {
      "sampler": 0,
      "source": 1
    },
    {
      "sampler": 0,
      "source": 2
    }
  ]
}
