{
	"asset":{
		"generator":"Khronos glTF Blender I/O v4.3.47",
		"version":"2.0"
	},
	"extensionsUsed":[
		"KHR_materials_transmission"
	],
	"scene":0,
	"scenes":[
		{
			"name":"Scene",
			"nodes":[
				7,
				8
			]
		}
	],
	"nodes":[
		{
			"mesh":0,
			"name":"01_3_Base_0"
		},
		{
			"children":[
				0
			],
			"name":"01_3",
			"translation":[
				0,
				0,
				10.588479042053223
			]
		},
		{
			"mesh":1,
			"name":"la_2_Base_0"
		},
		{
			"children":[
				2
			],
			"name":"la_2",
			"translation":[
				0,
				0,
				-10.400809288024902
			]
		},
		{
			"mesh":2,
			"name":"le_2_Base_0"
		},
		{
			"children":[
				4
			],
			"name":"le_2",
			"translation":[
				0,
				0,
				-10.400809288024902
			]
		},
		{
			"children":[
				1,
				3,
				5
			],
			"name":"02_2",
			"translation":[
				0,
				0,
				-10.588479995727539
			]
		},
		{
			"children":[
				6
			],
			"name":"Sketchfab Model",
			"scale":[
				0.009999999776482582,
				0.010000001639127731,
				0.010000001639127731
			]
		},
		{
			"name":"Object_4"
		}
	],
	"materials":[
		{
			"doubleSided":true,
			"name":"Base_0",
			"normalTexture":{
				"index":0
			},
			"pbrMetallicRoughness":{
				"baseColorTexture":{
					"index":1
				},
				"metallicRoughnessTexture":{
					"index":2
				}
			}
		},
		{
			"alphaMode":"BLEND",
			"doubleSided":true,
			"extensions":{
				"KHR_materials_transmission":{
					"transmissionFactor":1
				}
			},
			"name":"Glass",
			"pbrMetallicRoughness":{
				"baseColorFactor":[
					0.6038269996643066,
					0.6038269996643066,
					0.6038269996643066,
					0.25
				],
				"metallicFactor":0,
				"roughnessFactor":0
			}
		}
	],
	"meshes":[
		{
			"name":"01_3_Base_0",
			"primitives":[
				{
					"attributes":{
						"POSITION":0,
						"NORMAL":1,
						"TEXCOORD_0":2
					},
					"indices":3,
					"material":0
				},
				{
					"attributes":{
						"POSITION":4,
						"NORMAL":5,
						"TEXCOORD_0":6
					},
					"indices":7,
					"material":1
				}
			]
		},
		{
			"name":"la_2_Base_0",
			"primitives":[
				{
					"attributes":{
						"POSITION":8,
						"NORMAL":9,
						"TEXCOORD_0":10
					},
					"indices":11,
					"material":0
				}
			]
		},
		{
			"name":"le_2_Base_0",
			"primitives":[
				{
					"attributes":{
						"POSITION":12,
						"NORMAL":13,
						"TEXCOORD_0":14
					},
					"indices":15,
					"material":0
				}
			]
		}
	],
	"textures":[
		{
			"sampler":0,
			"source":0
		},
		{
			"sampler":0,
			"source":1
		},
		{
			"sampler":0,
			"source":2
		}
	],
	"images":[
		{
			"mimeType":"image/png",
			"name":"Base_normal",
			"uri":"Base_normal.png"
		},
		{
			"mimeType":"image/png",
			"name":"Base_0_baseColor",
			"uri":"Base_0_baseColor.png"
		},
		{
			"mimeType":"image/png",
			"name":"Base_0_metallicRoughness",
			"uri":"Base_0_metallicRoughness.png"
		}
	],
	"accessors":[
		{
			"bufferView":0,
			"componentType":5126,
			"count":2755,
			"max":[
				933.1380004882812,
				931.2966918945312,
				110.1628646850586
			],
			"min":[
				-933.1380004882812,
				-931.2966918945312,
				-108.83258819580078
			],
			"type":"VEC3"
		},
		{
			"bufferView":1,
			"componentType":5126,
			"count":2755,
			"type":"VEC3"
		},
		{
			"bufferView":2,
			"componentType":5126,
			"count":2755,
			"type":"VEC2"
		},
		{
			"bufferView":3,
			"componentType":5123,
			"count":9912,
			"type":"SCALAR"
		},
		{
			"bufferView":4,
			"componentType":5126,
			"count":51,
			"max":[
				817.5724487304688,
				815.9591064453125,
				-77.0438003540039
			],
			"min":[
				-817.5724487304688,
				-815.9591064453125,
				-77.0438003540039
			],
			"type":"VEC3"
		},
		{
			"bufferView":5,
			"componentType":5126,
			"count":51,
			"type":"VEC3"
		},
		{
			"bufferView":6,
			"componentType":5126,
			"count":51,
			"type":"VEC2"
		},
		{
			"bufferView":7,
			"componentType":5123,
			"count":150,
			"type":"SCALAR"
		},
		{
			"bufferView":8,
			"componentType":5126,
			"count":160,
			"max":[
				41.69327926635742,
				740.5758666992188,
				20.943296432495117
			],
			"min":[
				-41.69327926635742,
				-25.02143669128418,
				20.943296432495117
			],
			"type":"VEC3"
		},
		{
			"bufferView":9,
			"componentType":5126,
			"count":160,
			"type":"VEC3"
		},
		{
			"bufferView":10,
			"componentType":5126,
			"count":160,
			"type":"VEC2"
		},
		{
			"bufferView":11,
			"componentType":5123,
			"count":510,
			"type":"SCALAR"
		},
		{
			"bufferView":12,
			"componentType":5126,
			"count":142,
			"max":[
				43.87369918823242,
				560.1244506835938,
				23.069732666015625
			],
			"min":[
				-43.87369918823242,
				-32.31006622314453,
				23.069732666015625
			],
			"type":"VEC3"
		},
		{
			"bufferView":13,
			"componentType":5126,
			"count":142,
			"type":"VEC3"
		},
		{
			"bufferView":14,
			"componentType":5126,
			"count":142,
			"type":"VEC2"
		},
		{
			"bufferView":15,
			"componentType":5123,
			"count":426,
			"type":"SCALAR"
		}
	],
	"bufferViews":[
		{
			"buffer":0,
			"byteLength":33060,
			"byteOffset":0,
			"target":34962
		},
		{
			"buffer":0,
			"byteLength":33060,
			"byteOffset":33060,
			"target":34962
		},
		{
			"buffer":0,
			"byteLength":22040,
			"byteOffset":66120,
			"target":34962
		},
		{
			"buffer":0,
			"byteLength":19824,
			"byteOffset":88160,
			"target":34963
		},
		{
			"buffer":0,
			"byteLength":612,
			"byteOffset":107984,
			"target":34962
		},
		{
			"buffer":0,
			"byteLength":612,
			"byteOffset":108596,
			"target":34962
		},
		{
			"buffer":0,
			"byteLength":408,
			"byteOffset":109208,
			"target":34962
		},
		{
			"buffer":0,
			"byteLength":300,
			"byteOffset":109616,
			"target":34963
		},
		{
			"buffer":0,
			"byteLength":1920,
			"byteOffset":109916,
			"target":34962
		},
		{
			"buffer":0,
			"byteLength":1920,
			"byteOffset":111836,
			"target":34962
		},
		{
			"buffer":0,
			"byteLength":1280,
			"byteOffset":113756,
			"target":34962
		},
		{
			"buffer":0,
			"byteLength":1020,
			"byteOffset":115036,
			"target":34963
		},
		{
			"buffer":0,
			"byteLength":1704,
			"byteOffset":116056,
			"target":34962
		},
		{
			"buffer":0,
			"byteLength":1704,
			"byteOffset":117760,
			"target":34962
		},
		{
			"buffer":0,
			"byteLength":1136,
			"byteOffset":119464,
			"target":34962
		},
		{
			"buffer":0,
			"byteLength":852,
			"byteOffset":120600,
			"target":34963
		}
	],
	"samplers":[
		{
			"magFilter":9729,
			"minFilter":9987
		}
	],
	"buffers":[
		{
			"byteLength":121452,
			"uri":"wall_clock.bin"
		}
	]
}
